<svg width="133" height="50" viewBox="0 0 133 50" fill="none" xmlns="http://www.w3.org/2000/svg">
<path d="M0 0H128C130.761 0 133 2.23858 133 5V50H5C2.23857 50 0 47.7614 0 45V0Z" fill="#4B4A4A" fill-opacity="0.3"/>
<path d="M22.4023 33V15.9375H27.9805C29.832 15.9375 31.2227 16.3203 32.1523 17.0859C33.0898 17.8516 33.5586 18.9844 33.5586 20.4844C33.5586 21.2812 33.332 21.9883 32.8789 22.6055C32.4258 23.2148 31.8086 23.6875 31.0273 24.0234C31.9492 24.2812 32.6758 24.7734 33.207 25.5C33.7461 26.2188 34.0156 27.0781 34.0156 28.0781C34.0156 29.6094 33.5195 30.8125 32.5273 31.6875C31.5352 32.5625 30.1328 33 28.3203 33H22.4023ZM24.6523 25.0195V31.1602H28.3672C29.4141 31.1602 30.2383 30.8906 30.8398 30.3516C31.4492 29.8047 31.7539 29.0547 31.7539 28.1016C31.7539 26.0469 30.6367 25.0195 28.4023 25.0195H24.6523ZM24.6523 23.2148H28.0508C29.0352 23.2148 29.8203 22.9688 30.4062 22.4766C31 21.9844 31.2969 21.3164 31.2969 20.4727C31.2969 19.5352 31.0234 18.8555 30.4766 18.4336C29.9297 18.0039 29.0977 17.7891 27.9805 17.7891H24.6523V23.2148ZM49.6602 17.7891H44.1758V33H41.9375V17.7891H36.4648V15.9375H49.6602V17.7891ZM62.6797 25.1133H55.2852V31.1602H63.875V33H53.0352V15.9375H63.7578V17.7891H55.2852V23.2734H62.6797V25.1133ZM71.9492 25.3359H69.875V33H67.625V15.9375H69.875V23.4609H71.6328L77.5977 15.9375H80.3984L73.8828 24.2109L80.8789 33H78.125L71.9492 25.3359ZM95.9609 27.5859C95.75 29.3906 95.082 30.7852 93.957 31.7695C92.8398 32.7461 91.3516 33.2344 89.4922 33.2344C87.4766 33.2344 85.8594 32.5117 84.6406 31.0664C83.4297 29.6211 82.8242 27.6875 82.8242 25.2656V23.625C82.8242 22.0391 83.1055 20.6445 83.668 19.4414C84.2383 18.2383 85.043 17.3164 86.082 16.6758C87.1211 16.0273 88.3242 15.7031 89.6914 15.7031C91.5039 15.7031 92.957 16.2109 94.0508 17.2266C95.1445 18.2344 95.7812 19.6328 95.9609 21.4219H93.6992C93.5039 20.0625 93.0781 19.0781 92.4219 18.4688C91.7734 17.8594 90.8633 17.5547 89.6914 17.5547C88.2539 17.5547 87.125 18.0859 86.3047 19.1484C85.4922 20.2109 85.0859 21.7227 85.0859 23.6836V25.3359C85.0859 27.1875 85.4727 28.6602 86.2461 29.7539C87.0195 30.8477 88.1016 31.3945 89.4922 31.3945C90.7422 31.3945 91.6992 31.1133 92.3633 30.5508C93.0352 29.9805 93.4805 28.9922 93.6992 27.5859H95.9609ZM111.324 17.7891H105.84V33H103.602V17.7891H98.1289V15.9375H111.324V17.7891Z" fill="white"/>
</svg>
